<?xml version="1.0" encoding="utf-8"?>
<!-- Generator: Adobe Illustrator 24.3.0, SVG Export Plug-In . SVG Version: 6.00 Build 0)  -->
<svg version="1.1" id="Layer_1" xmlns="http://www.w3.org/2000/svg" xmlns:xlink="http://www.w3.org/1999/xlink" x="0px" y="0px"
	 viewBox="0 0 183.7 53.5" style="enable-background:new 0 0 183.7 53.5;" xml:space="preserve">
<style type="text/css">
	.st0{fill:#44B649;}
	.st1{fill:none;stroke:#7ED933;stroke-miterlimit:10;}
</style>
<path class="st0" d="M67.8,8.5h4.8c0.3,0,0.5,0.2,0.5,0.4v9.9h4.7c0.3,0,0.4,0.2,0.4,0.5v4.8H83c0.3,0,0.4,0.2,0.4,0.4v4.8h4.8V8.9
	c0.1-0.3,0.2-0.4,0.4-0.4h4.8c0.3,0,0.4,0.2,0.4,0.4v35.9c0,0.3-0.2,0.4-0.4,0.4h-4.8c-0.2,0-0.4-0.1-0.4-0.3v-0.1v-9.9h-4.8
	c-0.3,0-0.4-0.2-0.4-0.5v-4.8h-4.8c-0.3,0-0.4-0.1-0.4-0.4v-4.8H73v20.3c0,0.3-0.2,0.4-0.5,0.4h-4.8c-0.3,0-0.4-0.1-0.4-0.4V8.9
	C67.4,8.6,67.6,8.5,67.8,8.5z"/>
<path class="st0" d="M103,19.2h15c0.3,0,0.4,0.2,0.4,0.4v4.7h4.7c0.3,0,0.4,0.2,0.4,0.4v9.8c0,0.2-0.1,0.4-0.3,0.4h-0.1H103v4.7h15
	c0.3,0,0.4,0.2,0.4,0.4v4.7c0,0.2-0.1,0.4-0.3,0.4H118h-15c-0.2,0-0.4-0.1-0.4-0.3v-0.1V40h-4.7c-0.2,0-0.4-0.1-0.4-0.3v-0.1v-15
	c0-0.3,0.2-0.4,0.4-0.4h4.7v-4.7C102.6,19.3,102.8,19.2,103,19.2z M103,24.7v4.7h15v-4.7H103z"/>
<path class="st0" d="M127.9,19.2h4.7c0.3,0,0.4,0.2,0.4,0.4v20.1h4.7v-9.8c0-0.3,0.1-0.4,0.4-0.4h4.7c0.3,0,0.4,0.1,0.4,0.4v9.8h4.7
	V19.6c0.1-0.3,0.2-0.4,0.4-0.4h4.7c0.3,0,0.4,0.2,0.4,0.4v20.1c0,0.2-0.1,0.4-0.3,0.4H153h-4.7v4.7c0,0.2-0.1,0.4-0.3,0.4h-0.1h-4.7
	c-0.2,0-0.4-0.1-0.4-0.3v-0.1v-4.7h-4.7v4.7c0,0.2-0.1,0.4-0.3,0.4h-0.1H133c-0.2,0-0.4-0.1-0.4-0.3v-0.1v-4.7h-4.7
	c-0.2,0-0.4-0.1-0.4-0.3v-0.1V19.6C127.5,19.4,127.7,19.2,127.9,19.2z"/>
<path class="st0" d="M163,19h15.1c0.3,0,0.4,0.2,0.4,0.4v4.8c0,0.2-0.1,0.4-0.3,0.4h-0.1H163v4.7h15.1c0.3,0,0.4,0.2,0.4,0.4v4.8
	h4.8c0.3,0,0.4,0.2,0.4,0.4v4.7c0,0.2-0.1,0.4-0.3,0.4h-0.1h-4.7v4.8c0,0.2-0.1,0.4-0.3,0.4h-0.1H158c-0.2,0-0.4-0.1-0.4-0.3v-0.1
	V40c0-0.3,0.2-0.4,0.4-0.4h20.2v-4.7H163c-0.2,0-0.4-0.1-0.4-0.3v-0.1v-4.8h-4.8c-0.2,0-0.4-0.1-0.4-0.3v-0.1v-4.7
	c0-0.3,0.2-0.4,0.4-0.4h4.8v-4.8C162.6,19.1,162.8,19,163,19z"/>
<path class="st1" d="M52.4,15.4h-6.8V8.5c0-0.3-0.2-0.5-0.7-0.6h-6.8V1.1c0-0.2-0.1-0.5-0.4-0.5c-0.1-0.1-0.2-0.1-0.3-0.1H16
	c-0.1,0-0.2,0-0.3,0.1c-0.2,0.1-0.4,0.3-0.4,0.5v6.8H8.5C8.1,8,7.9,8.2,7.9,8.5v6.8H1.1c-0.4,0.1-0.6,0.3-0.6,0.6v21.6
	c0,0.3,0.2,0.6,0.4,0.6c0.1,0,0.1,0,0.2,0h6.8V45c0,0.4,0.2,0.6,0.6,0.6h6.8v6.8c0,0.4,0.2,0.6,0.6,0.6h21.6c0.4,0,0.7-0.2,0.7-0.6
	v-6.8H45c0.4,0,0.7-0.2,0.7-0.6v-6.8h6.8c0.3,0,0.6-0.2,0.6-0.5v-0.1V16C53,15.6,52.8,15.4,52.4,15.4z"/>
<path class="st0" d="M38.2,19.9c0,0.2-0.1,0.3-0.3,0.4h-0.1H20.2v4.1h13.1c0.3,0,0.4,0.2,0.4,0.4v4.1h4.1c0.2,0,0.4,0.2,0.4,0.4l0,0
	v4.1c0,0.2-0.1,0.3-0.3,0.4h-0.1h-4.1v4.1c0,0.2-0.1,0.4-0.4,0.4h-4.1v4.1c0,0.2-0.1,0.4-0.4,0.4h-4.1c-0.2,0-0.3-0.1-0.4-0.3v-0.1
	v-4.1h-8.6c-0.2,0-0.3-0.1-0.4-0.3v-0.1v-4.1c0-0.2,0.2-0.4,0.4-0.4h17.6v-4.1H20.2c-0.2,0-0.4-0.1-0.4-0.4v-4.1h-4.1
	c-0.2,0-0.4-0.1-0.4-0.4v-4.1c0-0.2,0.2-0.4,0.4-0.4h4.1v-4.1c0-0.2,0.2-0.4,0.4-0.4h4.1v-4.1c0-0.2,0.2-0.4,0.4-0.4h4.1
	c0.3,0,0.4,0.2,0.4,0.4v4.1h8.6c0.2,0,0.4,0.2,0.4,0.4C38.2,15.8,38.2,19.9,38.2,19.9z"/>
</svg>
