<?xml version="1.0" encoding="utf-8"?>
<!-- Generator: Adobe Illustrator 24.3.0, SVG Export Plug-In . SVG Version: 6.00 Build 0)  -->
<svg version="1.1" id="Layer_1" xmlns="http://www.w3.org/2000/svg" xmlns:xlink="http://www.w3.org/1999/xlink" x="0px" y="0px"
	 viewBox="0 0 243.5 53.5" style="enable-background:new 0 0 243.5 53.5;" xml:space="preserve">
<style type="text/css">
	.st0{fill:#44B649;}
	.st1{fill:none;stroke:#7ED933;stroke-miterlimit:10;}
</style>
<path class="st0" d="M73,8.6h15.1c0.3,0,0.4,0.2,0.4,0.4v4.8h4.8c0.3,0,0.4,0.2,0.4,0.4v4.8c0,0.2-0.1,0.4-0.3,0.4c0,0-0.1,0-0.1,0
	h-4.8c-0.2,0-0.4-0.1-0.4-0.3c0,0,0-0.1,0-0.1v-4.8H73v25.5h15.1v-4.8c0-0.3,0.2-0.4,0.4-0.4h4.8c0.3,0,0.4,0.2,0.4,0.4v4.8
	c0,0.2-0.1,0.4-0.3,0.4c0,0-0.1,0-0.1,0h-4.8v4.8c0,0.2-0.1,0.4-0.3,0.4c0,0-0.1,0-0.1,0H73c-0.2,0-0.4-0.1-0.4-0.3c0,0,0-0.1,0-0.1
	V40h-4.8c-0.2,0-0.4-0.1-0.4-0.3c0,0,0-0.1,0-0.1V14.1c0-0.3,0.2-0.4,0.4-0.4h4.8V9C72.6,8.7,72.8,8.6,73,8.6z"/>
<path class="st0" d="M97.9,19.2h4.7c0.3,0,0.4,0.2,0.4,0.4v4.7h4.7v-4.7c0.1-0.3,0.2-0.4,0.4-0.4h9.8c0.3,0,0.4,0.2,0.4,0.4v4.7h4.7
	c0.3,0,0.4,0.2,0.4,0.4v4.7c0,0.2-0.1,0.4-0.3,0.4c0,0-0.1,0-0.1,0h-4.7c-0.2,0-0.4-0.1-0.4-0.3c0,0,0-0.1,0-0.1v-4.7h-9.8v4.7
	c0,0.2-0.1,0.4-0.3,0.4c0,0-0.1,0-0.1,0H103v14.9c0,0.2-0.1,0.4-0.3,0.4c0,0-0.1,0-0.1,0h-4.7c-0.2,0-0.4-0.1-0.4-0.3
	c0,0,0-0.1,0-0.1V19.6C97.6,19.4,97.7,19.2,97.9,19.2z"/>
<path class="st0" d="M127.8,19.1h4.7c0.3,0,0.4,0.2,0.4,0.4v9.8h14.9v-9.8c0-0.3,0.2-0.4,0.4-0.4h4.7c0.3,0,0.4,0.2,0.4,0.4v20.1
	c0,0.2-0.1,0.4-0.3,0.4c0,0-0.1,0-0.1,0h-4.7v4.7c0,0.2-0.1,0.4-0.3,0.4c0,0-0.1,0-0.1,0H133c-0.2,0-0.4-0.1-0.4-0.3
	c0,0,0-0.1,0-0.1V40c0-0.3,0.1-0.4,0.4-0.4h14.9v-4.7H133c-0.2,0-0.4-0.1-0.4-0.3c0,0,0-0.1,0-0.1v-4.7h-4.7c-0.2,0-0.4-0.1-0.4-0.3
	c0,0,0-0.1,0-0.1v-9.8C127.5,19.3,127.6,19.1,127.8,19.1z"/>
<path class="st0" d="M157.8,19H178c0.3,0,0.4,0.2,0.4,0.4v4.7h4.7c0.3,0,0.4,0.2,0.4,0.4v4.7c0,0.2-0.1,0.4-0.3,0.4c0,0-0.1,0-0.1,0
	h-4.7v4.7c0,0.2-0.1,0.4-0.3,0.4c0,0-0.1,0-0.1,0h-15v9.9c0,0.2-0.1,0.4-0.3,0.4c0,0-0.1,0-0.1,0h-4.7c-0.2,0-0.4-0.1-0.4-0.3
	c0,0,0-0.1,0-0.1V19.5C157.5,19.2,157.6,19,157.8,19z M163,24.6v4.7h15v-4.7H163z"/>
<path class="st0" d="M193,8.5h4.8c0.3,0,0.5,0.2,0.5,0.4v9.9h4.7c0.3,0,0.5,0.2,0.5,0.5V24c0,0.2-0.1,0.4-0.3,0.5c0,0-0.1,0-0.1,0
	h-4.7v15.1h9.9v-4.8c0.1-0.3,0.2-0.5,0.5-0.5h4.7c0.3,0,0.5,0.2,0.5,0.5v4.8c0,0.3-0.1,0.4-0.5,0.4h-4.7v4.8c0,0.3-0.1,0.4-0.5,0.4
	h-9.9c-0.3,0-0.5-0.1-0.5-0.4V40H193c-0.2,0-0.4-0.1-0.4-0.3c0,0,0-0.1,0-0.1V24.5h-4.8c-0.3,0-0.4-0.1-0.4-0.5v-4.7
	c0.1-0.3,0.2-0.5,0.4-0.5h4.8V8.9C192.6,8.6,192.7,8.5,193,8.5z"/>
<path class="st0" d="M223,19.2h14.9c0.3,0,0.4,0.2,0.4,0.4v4.7h4.7c0.3,0,0.4,0.2,0.4,0.5v14.9c0,0.3-0.1,0.5-0.4,0.5h-4.7v4.7
	c0,0.3-0.1,0.4-0.4,0.4H223c-0.3,0-0.5-0.1-0.5-0.4v-4.7h-4.7c-0.3,0-0.4-0.2-0.4-0.5V24.7c0.1-0.3,0.2-0.5,0.4-0.5h4.7v-4.7
	C222.6,19.3,222.8,19.1,223,19.2C223,19.2,223,19.2,223,19.2z M223,24.7v14.9h14.9V24.7H223z"/>
<path class="st1" d="M52.4,15.4h-6.8V8.5c0-0.3-0.2-0.5-0.7-0.6h-6.8V1.1c0-0.2-0.1-0.5-0.4-0.5c-0.1-0.1-0.2-0.1-0.3-0.1H16
	c-0.1,0-0.2,0-0.3,0.1c-0.2,0.1-0.4,0.3-0.4,0.5v6.8H8.5C8.1,8,7.9,8.2,7.9,8.5v6.8H1.1c-0.4,0.1-0.6,0.3-0.6,0.6v21.6
	c0,0.3,0.2,0.6,0.4,0.6c0.1,0,0.1,0,0.2,0h6.8V45c0,0.4,0.2,0.6,0.6,0.6h6.8v6.8c0,0.4,0.2,0.6,0.6,0.6h21.6c0.4,0,0.7-0.2,0.7-0.6
	v-6.8H45c0.4,0,0.7-0.2,0.7-0.6v-6.8h6.8c0.3,0,0.6-0.2,0.6-0.5c0,0,0-0.1,0-0.1V16C53,15.6,52.8,15.4,52.4,15.4z"/>
<path class="st0" d="M38.2,19.9c0,0.2-0.1,0.3-0.3,0.4c0,0-0.1,0-0.1,0H20.2v4.1h13.1c0.3,0,0.4,0.2,0.4,0.4v4.1h4.1
	c0.2,0,0.4,0.2,0.4,0.4c0,0,0,0,0,0v4.1c0,0.2-0.1,0.3-0.3,0.4c0,0-0.1,0-0.1,0h-4.1v4.1c0,0.2-0.1,0.4-0.4,0.4h-4.1v4.1
	c0,0.2-0.1,0.4-0.4,0.4h-4.1c-0.2,0-0.3-0.1-0.4-0.3c0,0,0-0.1,0-0.1v-4.1h-8.6c-0.2,0-0.3-0.1-0.4-0.3c0,0,0-0.1,0-0.1v-4.1
	c0-0.2,0.2-0.4,0.4-0.4h17.6v-4.1H20.2c-0.2,0-0.4-0.1-0.4-0.4v-4.1h-4.1c-0.2,0-0.4-0.1-0.4-0.4v-4.1c0-0.2,0.2-0.4,0.4-0.4h4.1
	v-4.1c0-0.2,0.2-0.4,0.4-0.4h4.1v-4.1c0-0.2,0.2-0.4,0.4-0.4h4.1c0.3,0,0.4,0.2,0.4,0.4v4.1h8.6c0.2,0,0.4,0.2,0.4,0.4V19.9z"/>
</svg>
