<svg id="Layer_1" data-name="Layer 1" xmlns="http://www.w3.org/2000/svg" viewBox="0 0 648.74 73.15"><defs><style>.cls-1{fill:#44b649;}.cls-2{fill:#f1f2f2;}</style></defs><path class="cls-1" d="M93.06,232.4h9.4c.6.09.9.37.9.83v9.47h19.7c.56.09.84.37.84.83V253a.74.74,0,0,1-.84.83H82.76v9.4h30q.9.13.9.9v9.4h9.4a.86.86,0,0,1,.84.9v9.4a.74.74,0,0,1-.84.83h-9.4v9.47q0,.84-.9.84h-9.4v9.46q0,.84-.9.84h-9.4a.74.74,0,0,1-.83-.84V295H72.46a.74.74,0,0,1-.83-.84v-9.47c.09-.55.37-.83.83-.83h40.3v-9.4h-30c-.55,0-.83-.3-.83-.9v-9.4H72.46c-.55,0-.83-.3-.83-.9v-9.4c.09-.56.37-.83.83-.83h9.47v-9.47c.09-.56.37-.83.83-.83h9.47v-9.47C92.32,232.67,92.6,232.4,93.06,232.4Z" transform="translate(-71.63 -232.26)"/><path class="cls-2" d="M132.39,232.4h9.46c.56.09.84.37.84.83v30h30v-30a.85.85,0,0,1,.9-.83H183c.56.09.83.37.83.83v71.2a.74.74,0,0,1-.83.84h-9.4q-.9,0-.9-.84v-30h-30v30a.74.74,0,0,1-.84.84h-9.46a.74.74,0,0,1-.84-.84v-71.2C131.65,232.67,131.92,232.4,132.39,232.4Z" transform="translate(-71.63 -232.26)"/><path class="cls-2" d="M191.9,253.48h9.32c.61.1.91.38.91.84V294.2h19.49v-9.33c.09-.55.37-.83.83-.83h9.33V254.32a.86.86,0,0,1,.9-.84H242c.56.1.83.38.83.84v50.11a.74.74,0,0,1-.83.84h-9.33q-.9,0-.9-.84v-9.32h-9.33v9.32a.74.74,0,0,1-.83.84H202.13c-.6,0-.91-.28-.91-.84v-9.32H191.9c-.56,0-.84-.3-.84-.91V254.32Q191.2,253.48,191.9,253.48Z" transform="translate(-71.63 -232.26)"/><path class="cls-2" d="M262,253.21h29.92c.56.09.84.37.84.83v9.47a.74.74,0,0,1-.84.83H262v9.4h29.92c.56.09.84.37.84.83V284h9.46c.56.09.84.37.84.83v9.4a.74.74,0,0,1-.84.84h-9.46v9.46a.74.74,0,0,1-.84.84H251.69a.74.74,0,0,1-.84-.84v-9.46q.14-.84.84-.84h40.22v-9.4H262a.74.74,0,0,1-.84-.83v-9.47h-9.46a.74.74,0,0,1-.84-.83v-9.4c.09-.55.37-.83.84-.83h9.46V254C261.19,253.48,261.47,253.21,262,253.21Z" transform="translate(-71.63 -232.26)"/><path class="cls-2" d="M321.49,232.26H331c.6.09.9.37.9.83v19.77h9.4q.9.13.9.9v9.4a.8.8,0,0,1-.9.9h-9.4v30.07h19.7v-9.47c.09-.59.39-.9.9-.9h9.4q.9.15.9.9v9.47q0,.84-.9.84h-9.4v9.46q0,.84-.9.84h-19.7q-.9,0-.9-.84V295h-9.47a.74.74,0,0,1-.83-.84V264.06h-9.47c-.56,0-.83-.3-.83-.9v-9.4c.09-.6.37-.9.83-.9h9.47V233.09C320.75,232.53,321,232.26,321.49,232.26Z" transform="translate(-71.63 -232.26)"/><path class="cls-2" d="M380.93,232.4H400.7c.56.09.83.37.83.83v60.9h9.4q.9.14.9.84v9.46q0,.84-.9.84h-30a.74.74,0,0,1-.84-.84V295q.15-.84.84-.84h9.47v-50.6h-9.47a.74.74,0,0,1-.84-.83v-9.47C380.19,232.67,380.47,232.4,380.93,232.4Z" transform="translate(-71.63 -232.26)"/><path class="cls-2" d="M440.86,253.48h29.72c.55.1.83.38.83.84v9.4h9.4c.56,0,.83.32.83.83v19.56a.74.74,0,0,1-.83.84H440.86v9.32h29.72c.55.1.83.37.83.84v9.39a.74.74,0,0,1-.83.84H440.86a.74.74,0,0,1-.84-.84v-9.39h-9.39a.74.74,0,0,1-.84-.84V264.55c.09-.55.37-.83.84-.83H440v-9.4C440.07,253.76,440.34,253.48,440.86,253.48Zm0,11.07v9.33h29.72v-9.33Z" transform="translate(-71.63 -232.26)"/><path class="cls-2" d="M490.2,232.4h30c.6.09.9.37.9.83v9.47h9.4c.6.09.91.37.91.83V253h9.39c.56.09.84.37.84.83v30a.74.74,0,0,1-.84.83h-9.39v9.47c0,.56-.31.84-.91.84h-9.4v9.46q0,.84-.9.84h-30a.74.74,0,0,1-.83-.84v-71.2C489.46,232.67,489.74,232.4,490.2,232.4Zm10.3,11.13v50.6h19.7v-9.47a.85.85,0,0,1,.9-.83h9.4v-30h-9.4c-.6,0-.9-.27-.9-.83v-9.47Z" transform="translate(-71.63 -232.26)"/><path class="cls-2" d="M560.22,253.42H590c.56.09.83.37.83.83v9.4h9.4c.56.09.84.37.84.83v40a.74.74,0,0,1-.84.84h-40a.74.74,0,0,1-.83-.84v-9.39H550a.74.74,0,0,1-.84-.84v-9.4c.1-.55.38-.83.84-.83h9.4v-9.33c.09-.55.36-.83.83-.83H590v-9.4H560.22a.73.73,0,0,1-.83-.83v-9.4C559.48,253.69,559.75,253.42,560.22,253.42Zm0,31.45v9.4H590v-9.4Z" transform="translate(-71.63 -232.26)"/><path class="cls-2" d="M619.73,232.26h9.46c.61.09.91.37.91.83v19.77h9.4q.9.13.9.9v9.4a.8.8,0,0,1-.9.9h-9.4v30.07h19.7v-9.47c.09-.59.39-.9.9-.9h9.4q.9.15.9.9v9.47q0,.84-.9.84h-9.4v9.46q0,.84-.9.84H630.1c-.6,0-.91-.28-.91-.84V295h-9.46a.74.74,0,0,1-.84-.84V264.06h-9.46q-.84,0-.84-.9v-9.4q.13-.9.84-.9h9.46V233.09C619,232.53,619.26,232.26,619.73,232.26Z" transform="translate(-71.63 -232.26)"/><path class="cls-2" d="M679.52,253.42H709.3c.56.09.84.37.84.83v9.4h9.39c.56.09.84.37.84.83v40a.74.74,0,0,1-.84.84h-40a.74.74,0,0,1-.84-.84v-9.39h-9.4a.74.74,0,0,1-.83-.84v-9.4c.09-.55.37-.83.83-.83h9.4v-9.33c.09-.55.37-.83.84-.83H709.3v-9.4H679.52a.74.74,0,0,1-.84-.83v-9.4C678.77,253.69,679.05,253.42,679.52,253.42Zm0,31.45v9.4H709.3v-9.4Z" transform="translate(-71.63 -232.26)"/></svg>