<?xml version="1.0" encoding="utf-8"?>
<!-- Generator: Adobe Illustrator 24.3.0, SVG Export Plug-In . SVG Version: 6.00 Build 0)  -->
<svg version="1.1" id="Layer_1" xmlns="http://www.w3.org/2000/svg" xmlns:xlink="http://www.w3.org/1999/xlink" x="0px" y="0px"
	 viewBox="0 0 648.7 73.2" style="enable-background:new 0 0 648.7 73.2;" xml:space="preserve">
<style type="text/css">
	.st0{fill:#44B649;}
	.st1{fill:#333333;}
</style>
<path class="st0" d="M21.4,0.1h9.4c0.6,0.1,0.9,0.4,0.9,0.8v9.5h19.7c0.6,0.1,0.8,0.4,0.8,0.8v9.5c0.1,0.4-0.2,0.8-0.6,0.8
	c-0.1,0-0.1,0-0.2,0H11.1V31h30c0.6,0.1,0.9,0.4,0.9,0.9v9.4h9.4c0.5,0,0.9,0.4,0.8,0.9c0,0,0,0,0,0v9.4c0.1,0.4-0.2,0.8-0.6,0.8
	c-0.1,0-0.1,0-0.2,0H42v9.5c0,0.6-0.3,0.8-0.9,0.8h-9.4v9.5c0,0.6-0.3,0.8-0.9,0.8h-9.4c-0.4,0.1-0.8-0.2-0.8-0.6c0-0.1,0-0.1,0-0.2
	v-9.4H0.8c-0.4,0.1-0.8-0.2-0.8-0.6C0,62,0,62,0,61.9v-9.5c0.1-0.5,0.4-0.8,0.8-0.8h40.3v-9.4h-30c-0.6,0-0.8-0.3-0.8-0.9v-9.4H0.8
	C0.3,31.9,0,31.6,0,31v-9.4c0.1-0.6,0.4-0.8,0.8-0.8h9.5v-9.5c0.1-0.6,0.4-0.8,0.8-0.8h9.5V1C20.7,0.4,21,0.1,21.4,0.1z"/>
<path class="st1" d="M60.8,0.1h9.5c0.6,0.1,0.8,0.4,0.8,0.8v30h30V1c0-0.5,0.4-0.8,0.9-0.8c0,0,0,0,0,0h9.4c0.6,0.1,0.8,0.4,0.8,0.8
	v71.2c0.1,0.4-0.2,0.8-0.6,0.8c-0.1,0-0.1,0-0.2,0H102c-0.6,0-0.9-0.3-0.9-0.8v-30h-30v30c0.1,0.4-0.2,0.8-0.6,0.8
	c-0.1,0-0.1,0-0.2,0h-9.5c-0.4,0.1-0.8-0.2-0.8-0.6c0-0.1,0-0.1,0-0.2V1C60,0.4,60.3,0.1,60.8,0.1z"/>
<path class="st1" d="M120.3,21.2h9.3c0.6,0.1,0.9,0.4,0.9,0.8v39.9H150v-9.3c0.1-0.5,0.4-0.8,0.8-0.8h9.3V22.1
	c0-0.5,0.4-0.9,0.9-0.8c0,0,0,0,0,0h9.3c0.6,0.1,0.8,0.4,0.8,0.8v50.1c0.1,0.4-0.2,0.8-0.6,0.8c-0.1,0-0.1,0-0.2,0H161
	c-0.6,0-0.9-0.3-0.9-0.8v-9.3h-9.3v9.3c0.1,0.4-0.2,0.8-0.6,0.8c-0.1,0-0.1,0-0.2,0h-19.5c-0.6,0-0.9-0.3-0.9-0.8v-9.3h-9.3
	c-0.6,0-0.8-0.3-0.8-0.9V22.1C119.5,21.5,119.8,21.2,120.3,21.2z"/>
<path class="st1" d="M190.4,21h29.9c0.6,0.1,0.8,0.4,0.8,0.8v9.5c0.1,0.4-0.2,0.8-0.6,0.8c-0.1,0-0.1,0-0.2,0h-29.9v9.4h29.9
	c0.6,0.1,0.8,0.4,0.8,0.8v9.4h9.5c0.6,0.1,0.8,0.4,0.8,0.8V62c0.1,0.4-0.2,0.8-0.6,0.8c-0.1,0-0.1,0-0.2,0h-9.5v9.5
	c0.1,0.4-0.2,0.8-0.6,0.8c-0.1,0-0.1,0-0.2,0h-40.2c-0.4,0.1-0.8-0.2-0.8-0.6c0-0.1,0-0.1,0-0.2v-9.5c0.1-0.6,0.4-0.8,0.8-0.8h40.2
	v-9.4h-29.9c-0.4,0.1-0.8-0.2-0.8-0.6c0-0.1,0-0.1,0-0.2v-9.5h-9.5c-0.4,0.1-0.8-0.2-0.8-0.6c0-0.1,0-0.1,0-0.2V32
	c0.1-0.5,0.4-0.8,0.8-0.8h9.5v-9.5C189.6,21.2,189.8,21,190.4,21z"/>
<path class="st1" d="M249.9,0h9.5c0.6,0.1,0.9,0.4,0.9,0.8v19.8h9.4c0.6,0.1,0.9,0.4,0.9,0.9v9.4c0.1,0.4-0.2,0.8-0.7,0.9
	c-0.1,0-0.1,0-0.2,0h-9.4v30.1H280v-9.5c0.1-0.6,0.4-0.9,0.9-0.9h9.4c0.6,0.1,0.9,0.4,0.9,0.9v9.5c0,0.6-0.3,0.8-0.9,0.8h-9.4v9.5
	c0,0.6-0.3,0.8-0.9,0.8h-19.7c-0.6,0-0.9-0.3-0.9-0.8v-9.4h-9.5c-0.4,0.1-0.8-0.2-0.8-0.6c0-0.1,0-0.1,0-0.2V31.8h-9.5
	c-0.6,0-0.8-0.3-0.8-0.9v-9.4c0.1-0.6,0.4-0.9,0.8-0.9h9.5V0.8C249.1,0.3,249.4,0,249.9,0z"/>
<path class="st1" d="M309.3,0.1h19.8c0.6,0.1,0.8,0.4,0.8,0.8v60.9h9.4c0.6,0.1,0.9,0.4,0.9,0.8v9.5c0,0.6-0.3,0.8-0.9,0.8h-30
	c-0.4,0.1-0.8-0.2-0.8-0.6c0-0.1,0-0.1,0-0.2v-9.4c0.1-0.6,0.4-0.8,0.8-0.8h9.5V11.3h-9.5c-0.4,0.1-0.8-0.2-0.8-0.6
	c0-0.1,0-0.1,0-0.2V1C308.6,0.4,308.8,0.1,309.3,0.1z"/>
<path class="st1" d="M369.2,21.2h29.7c0.5,0.1,0.8,0.4,0.8,0.8v9.4h9.4c0.6,0,0.8,0.3,0.8,0.8v19.6c0.1,0.4-0.2,0.8-0.6,0.8
	c-0.1,0-0.1,0-0.2,0h-39.9V62h29.7c0.5,0.1,0.8,0.4,0.8,0.8v9.4c0.1,0.4-0.2,0.8-0.6,0.8c-0.1,0-0.1,0-0.2,0h-29.7
	c-0.4,0.1-0.8-0.2-0.8-0.6c0-0.1,0-0.1,0-0.2v-9.4H359c-0.4,0.1-0.8-0.2-0.8-0.6c0-0.1,0-0.1,0-0.2V32.3c0.1-0.5,0.4-0.8,0.8-0.8
	h9.4v-9.4C368.4,21.5,368.7,21.2,369.2,21.2z M369.2,32.3v9.3h29.7v-9.3H369.2z"/>
<path class="st1" d="M418.6,0.1h30c0.6,0.1,0.9,0.4,0.9,0.8v9.5h9.4c0.6,0.1,0.9,0.4,0.9,0.8v9.5h9.4c0.6,0.1,0.8,0.4,0.8,0.8v30
	c0.1,0.4-0.2,0.8-0.6,0.8c-0.1,0-0.1,0-0.2,0h-9.4v9.5c0,0.6-0.3,0.8-0.9,0.8h-9.4v9.5c0,0.6-0.3,0.8-0.9,0.8h-30
	c-0.4,0.1-0.8-0.2-0.8-0.6c0-0.1,0-0.1,0-0.2V1C417.8,0.4,418.1,0.1,418.6,0.1z M428.9,11.3v50.6h19.7v-9.5c0-0.5,0.4-0.8,0.9-0.8
	c0,0,0,0,0,0h9.4v-30h-9.4c-0.6,0-0.9-0.3-0.9-0.8v-9.5L428.9,11.3z"/>
<path class="st1" d="M488.6,21.2h29.8c0.6,0.1,0.8,0.4,0.8,0.8v9.4h9.4c0.6,0.1,0.8,0.4,0.8,0.8v40c0.1,0.4-0.2,0.8-0.6,0.8
	c-0.1,0-0.1,0-0.2,0h-40c-0.4,0.1-0.8-0.2-0.8-0.6c0-0.1,0-0.1,0-0.2v-9.4h-9.4c-0.4,0.1-0.8-0.2-0.8-0.6c0-0.1,0-0.1,0-0.2v-9.4
	c0.1-0.5,0.4-0.8,0.8-0.8h9.4v-9.3c0.1-0.5,0.4-0.8,0.8-0.8h29.8v-9.4h-29.8c-0.4,0.1-0.8-0.2-0.8-0.6c0-0.1,0-0.1,0-0.2V22
	C487.8,21.4,488.1,21.2,488.6,21.2z M488.6,52.6V62h29.8v-9.4H488.6z"/>
<path class="st1" d="M548.1,0h9.5c0.6,0.1,0.9,0.4,0.9,0.8v19.8h9.4c0.6,0.1,0.9,0.4,0.9,0.9v9.4c0.1,0.4-0.2,0.8-0.7,0.9
	c-0.1,0-0.1,0-0.2,0h-9.4v30.1h19.7v-9.5c0.1-0.6,0.4-0.9,0.9-0.9h9.4c0.6,0.1,0.9,0.4,0.9,0.9v9.5c0,0.6-0.3,0.8-0.9,0.8h-9.4v9.5
	c0,0.6-0.3,0.8-0.9,0.8h-19.7c-0.6,0-0.9-0.3-0.9-0.8v-9.4h-9.5c-0.4,0.1-0.8-0.2-0.8-0.6c0-0.1,0-0.1,0-0.2V31.8h-9.5
	c-0.6,0-0.8-0.3-0.8-0.9v-9.4c0.1-0.6,0.4-0.9,0.8-0.9h9.5V0.8C547.4,0.3,547.6,0,548.1,0z"/>
<path class="st1" d="M607.9,21.2h29.8c0.6,0.1,0.8,0.4,0.8,0.8v9.4h9.4c0.6,0.1,0.8,0.4,0.8,0.8v40c0.1,0.4-0.2,0.8-0.6,0.8
	c-0.1,0-0.1,0-0.2,0h-40c-0.4,0.1-0.8-0.2-0.8-0.6c0-0.1,0-0.1,0-0.2v-9.4h-9.4c-0.4,0.1-0.8-0.2-0.8-0.6c0-0.1,0-0.1,0-0.2v-9.4
	c0.1-0.5,0.4-0.8,0.8-0.8h9.4v-9.3c0.1-0.5,0.4-0.8,0.8-0.8h29.8v-9.4h-29.8c-0.4,0.1-0.8-0.2-0.8-0.6c0-0.1,0-0.1,0-0.2V22
	C607.1,21.4,607.4,21.2,607.9,21.2z M607.9,52.6V62h29.8v-9.4H607.9z"/>
</svg>
